<?xml version="1.0" encoding="utf-8"?>
<!-- Generator: Adobe Illustrator 19.0.0, SVG Export Plug-In . SVG Version: 6.00 Build 0)  -->
<svg version="1.1" id="Layer_1" xmlns="http://www.w3.org/2000/svg" xmlns:xlink="http://www.w3.org/1999/xlink" x="0px" y="0px"
	 viewBox="0 0 364.5 91.5" style="enable-background:new 0 0 364.5 91.5;" xml:space="preserve">
<style type="text/css">
	.st0{fill:#FBFCFC;}
	.st1{fill:#F5F8F8;}
</style>
<path class="st0" d="M145.4,19.6c0.6-0.6,1-1.3,1-2.3s-0.3-1.7-1-2.3c-0.6-0.6-1.6-0.9-2.9-0.9h-24.1c-1.2,0-2.2,0.3-2.9,0.8
	c-0.7,0.6-1,1.3-1,2.3c0,0.9,0.3,1.7,0.9,2.3c0.6,0.6,1.6,0.9,2.9,0.9h8.3v27.2c0,1.6,0.4,2.7,1.1,3.5c0.7,0.8,1.6,1.2,2.8,1.2
	c1.1,0,2-0.4,2.7-1.1c0.7-0.8,1-1.9,1-3.5V20.5h8.3C143.8,20.5,144.7,20.2,145.4,19.6"/>
<path class="st0" d="M164,39.1c1-0.5,1.5-1.7,1.5-3.4c0-1.9-0.5-3.8-1.5-5.6c-1-1.8-2.4-3.3-4.4-4.5c-2-1.2-4.3-1.7-7-1.7
	c-2.1,0-4,0.3-5.7,1c-1.7,0.7-3.2,1.6-4.3,2.9c-1.2,1.3-2.1,2.8-2.7,4.5c-0.6,1.8-0.9,3.7-0.9,5.7c0,4.4,1.2,7.9,3.7,10.4
	c2.5,2.6,6,3.8,10.5,3.8c2,0,3.7-0.3,5.2-0.8c1.5-0.5,2.8-1.2,3.8-1.9c1-0.8,1.7-1.6,2.2-2.4c0.5-0.8,0.7-1.6,0.7-2.2
	c0-0.7-0.2-1.3-0.7-1.7c-0.4-0.4-1-0.6-1.7-0.6c-0.7,0-1.2,0.2-1.5,0.5c-0.9,0.8-1.6,1.5-2.1,1.9c-0.5,0.5-1.1,0.9-1.8,1.3
	c-0.6,0.4-1.3,0.7-2,0.9c-0.7,0.2-1.5,0.3-2.3,0.3c-1.2,0-2.4-0.3-3.4-0.9c-1-0.6-1.9-1.5-2.5-2.7c-0.6-1.2-0.9-2.6-1-4.2h13.7
	C161.6,39.9,163,39.6,164,39.1 M146.1,35.9c0.2-2.4,0.9-4.1,2-5.3c1.1-1.2,2.5-1.8,4.3-1.8c1.8,0,3.3,0.6,4.4,1.8
	c1.1,1.2,1.8,3,1.9,5.4H146.1z"/>
<path class="st0" d="M184.1,37.4l5.6-7.5c0.5-0.7,0.9-1.2,1.1-1.7c0.2-0.5,0.4-1,0.4-1.5c0-0.7-0.3-1.4-0.9-1.9
	c-0.6-0.5-1.4-0.8-2.3-0.8c-0.8,0-1.5,0.2-2,0.7c-0.5,0.4-1.2,1.2-1.9,2.2l-4.4,6.2l-4.5-6.2c-0.7-1-1.3-1.7-1.9-2.2
	c-0.5-0.5-1.2-0.7-2-0.7c-0.9,0-1.7,0.3-2.3,0.8c-0.6,0.5-0.9,1.2-0.9,1.9c0,0.9,0.5,2,1.5,3.2l5.6,7.5l-6.3,9.1
	c-1,1.4-1.4,2.4-1.4,3.1c0,0.7,0.3,1.4,0.9,1.9c0.6,0.6,1.4,0.8,2.3,0.8c0.8,0,1.5-0.2,2-0.7c0.5-0.4,1.2-1.2,1.9-2.2l5.2-7.4
	l5.1,7.4c0.7,1,1.4,1.7,1.9,2.2c0.6,0.5,1.2,0.7,2,0.7c0.9,0,1.7-0.3,2.3-0.8c0.6-0.5,0.9-1.2,0.9-1.9c0-0.7-0.5-1.8-1.5-3.2
	L184.1,37.4z"/>
<path class="st0" d="M209.7,46.5c-0.4,0-0.9,0.1-1.6,0.2c-0.7,0.1-1.3,0.2-1.7,0.2c-0.8,0-1.3-0.2-1.6-0.6c-0.3-0.4-0.5-0.8-0.6-1.4
	c-0.1-0.6-0.1-1.4-0.1-2.5V29.6h1.3c1.4,0,2.4-0.2,3.2-0.6c0.7-0.4,1.1-1,1.1-2c0-0.7-0.3-1.3-0.8-1.8c-0.5-0.5-1.3-0.7-2.3-0.7H204
	v-4.8c0-1.2-0.1-2.1-0.2-2.7c-0.1-0.6-0.4-1.2-0.9-1.6c-0.7-0.7-1.5-1-2.4-1c-0.6,0-1.2,0.2-1.7,0.4c-0.5,0.3-0.9,0.7-1.2,1.2
	c-0.3,0.5-0.4,1-0.5,1.6c-0.1,0.6-0.1,1.5-0.1,2.6v4.2h-0.8c-1.1,0-1.9,0.2-2.4,0.7c-0.6,0.5-0.8,1.1-0.8,1.8s0.3,1.3,0.8,1.8
	c0.5,0.5,1.3,0.7,2.3,0.7h0.9V43c0,2.2,0.2,3.9,0.5,5.2c0.3,1.3,1.1,2.3,2.2,3c1.1,0.7,2.8,1.1,5,1.1c2.3,0,4.1-0.3,5.3-0.9
	c1.2-0.6,1.8-1.5,1.8-2.6c0-0.7-0.2-1.2-0.7-1.7C210.8,46.8,210.3,46.5,209.7,46.5"/>
<path class="st0" d="M236.1,25.7c-1.7-1.1-3.8-1.6-6.1-1.6c-2,0-3.7,0.4-5.1,1.1c-1.4,0.7-2.7,1.8-4,3.1V17.6c0-1.3-0.3-2.3-0.9-3
	c-0.6-0.7-1.4-1-2.5-1c-1,0-1.8,0.4-2.4,1.1c-0.6,0.7-0.9,1.8-0.9,3.2v30.5c0,1.3,0.3,2.3,0.9,3c0.6,0.7,1.4,1,2.4,1
	c1,0,1.8-0.3,2.4-1c0.6-0.7,0.9-1.7,0.9-3v-0.7c0.8,0.9,1.4,1.6,1.9,2c0.5,0.4,1,0.9,1.7,1.3c0.7,0.4,1.5,0.8,2.4,1
	c0.9,0.3,2,0.4,3,0.4c1.8,0,3.4-0.4,4.8-1.1c1.5-0.7,2.7-1.7,3.7-3c1-1.3,1.8-2.8,2.3-4.6c0.5-1.8,0.8-3.7,0.8-5.8
	c0-2.9-0.5-5.3-1.4-7.4C239.2,28.4,237.8,26.8,236.1,25.7 M232.7,44.7c-1.3,1.5-2.8,2.3-4.5,2.3c-2.1,0-3.7-0.7-5-2.2
	c-1.3-1.5-1.9-3.6-1.9-6.4c0-1.9,0.3-3.5,0.9-4.9c0.6-1.4,1.4-2.4,2.5-3.1c1-0.7,2.2-1.1,3.6-1.1c1.3,0,2.4,0.4,3.4,1.1
	c1,0.7,1.7,1.8,2.3,3.1c0.5,1.3,0.8,2.9,0.8,4.8C234.6,41,234,43.2,232.7,44.7"/>
<path class="st0" d="M297.6,27.9c-1.2-1.3-2.7-2.2-4.4-2.9c-1.7-0.7-3.6-1-5.8-1c-1.6,0-3.2,0.2-4.6,0.6c-3.4-4.6-7.1-6.8-11.1-6.6
	c-4.9,0.2-8.3,4-10.2,6.5c-1.3-0.3-2.7-0.5-4.2-0.5c-2.1,0-4,0.3-5.7,1c-1.7,0.7-3.2,1.6-4.4,2.9c-1.2,1.2-2.1,2.7-2.8,4.5
	c-0.6,1.8-1,3.7-1,5.8c0,2.1,0.3,4,1,5.7c0.6,1.7,1.6,3.2,2.8,4.5c1.2,1.3,2.7,2.2,4.4,2.9c1.7,0.7,3.6,1,5.7,1c2.1,0,4.1-0.3,5.8-1
	c1.7-0.7,3.2-1.6,4.4-2.9c1.2-1.3,2.2-2.8,2.8-4.5c0.6-1.8,1-3.7,1-5.8c0-2.1-0.3-4-1-5.8c-0.6-1.7-1.6-3.2-2.8-4.5
	c-0.1-0.1-0.2-0.2-0.3-0.3c0,0,0,0,0,0c0.3-0.4,4.8-5.6,10.1,0.3v0c0,0,0,0,0,0c0,0,0,0,0,0c-1.2,1.2-2.1,2.7-2.8,4.5
	c-0.6,1.8-1,3.7-1,5.8c0,2.1,0.3,4,1,5.7c0.6,1.7,1.6,3.2,2.8,4.5c1.2,1.3,2.7,2.2,4.4,2.9c1.7,0.7,3.6,1,5.7,1c2.1,0,4.1-0.3,5.8-1
	c1.7-0.7,3.2-1.6,4.4-2.9c1.2-1.3,2.2-2.8,2.8-4.5c0.6-1.8,1-3.7,1-5.8c0-2.1-0.3-4-1-5.8C299.7,30.7,298.8,29.2,297.6,27.9
	 M262.4,44.8c-1.3,1.6-2.9,2.4-5.1,2.4c-1.4,0-2.6-0.4-3.6-1.1c-1-0.7-1.8-1.8-2.4-3.1c-0.6-1.4-0.8-3-0.8-4.8
	c0-1.8,0.3-3.5,0.8-4.8c0.6-1.4,1.4-2.4,2.4-3.1c1-0.7,2.2-1.1,3.6-1.1c2.1,0,3.8,0.8,5.1,2.4s1.9,3.8,1.9,6.7
	C264.2,41,263.6,43.2,262.4,44.8 M292.4,44.8c-1.3,1.6-2.9,2.4-5.1,2.4c-1.4,0-2.6-0.4-3.6-1.1c-1-0.7-1.8-1.8-2.4-3.1
	c-0.6-1.4-0.8-3-0.8-4.8c0-1.8,0.3-3.5,0.8-4.8c0.6-1.4,1.4-2.4,2.4-3.1c1-0.7,2.2-1.1,3.6-1.1c2.1,0,3.8,0.8,5.1,2.4
	c1.3,1.6,1.9,3.8,1.9,6.7C294.3,41,293.7,43.2,292.4,44.8"/>
<path class="st0" d="M326.2,45.6L319,34.4l3.7-3.4c1.9-1.7,2.8-3.1,2.8-4.1c0-0.8-0.3-1.5-0.9-2.1c-0.6-0.6-1.3-0.8-2.2-0.8
	c-0.7,0-1.4,0.2-1.9,0.6c-0.5,0.4-1.3,1.1-2.2,2.1l-7.9,8.2V17.9c0-1.4-0.3-2.5-0.9-3.2c-0.6-0.7-1.5-1.1-2.6-1.1
	c-1.1,0-2,0.4-2.6,1.2c-0.6,0.8-0.9,2-0.9,3.5v29.8c0,1.4,0.3,2.5,0.9,3.2c0.6,0.7,1.5,1.1,2.5,1.1c0.9,0,1.7-0.4,2.4-1.1
	c0.7-0.7,1.1-1.8,1.1-3.1v-5.6l3.8-3.6l6.2,10.1c0.8,1.2,1.4,2,1.9,2.5c0.5,0.5,1.1,0.7,2,0.7c1,0,1.8-0.3,2.4-1
	c0.6-0.6,0.9-1.5,0.9-2.6c0-0.4-0.1-0.8-0.3-1.2C327.1,47.1,326.7,46.5,326.2,45.6"/>
<path class="st0" d="M351.7,39.8c-0.7-1-1.7-1.9-3.1-2.6c-1.4-0.7-3.1-1.4-5.3-1.9c-1.8-0.4-3.3-0.8-4.3-1.1c-1-0.3-1.9-0.7-2.5-1.2
	c-0.6-0.5-0.9-1.1-0.9-1.8c0-0.8,0.4-1.5,1.3-2c0.8-0.5,1.9-0.8,3.1-0.8c1.2,0,2.2,0.2,2.9,0.6c0.7,0.4,1.3,1,1.9,1.6
	c0.6,0.8,1.2,1.4,1.7,1.8c0.5,0.4,1.1,0.6,1.8,0.6c1,0,1.8-0.3,2.3-0.8c0.5-0.5,0.8-1.2,0.8-2c0-0.7-0.3-1.5-0.8-2.3
	c-0.5-0.8-1.2-1.5-2.2-2.1c-1-0.6-2.2-1.1-3.6-1.5c-1.4-0.4-3.1-0.6-4.9-0.6c-2.3,0-4.3,0.4-5.9,1.1s-2.9,1.7-3.7,3
	c-0.8,1.2-1.3,2.6-1.3,4c0,1.6,0.5,2.9,1.4,4c0.9,1.1,2.1,1.9,3.6,2.6c1.5,0.7,3.5,1.3,5.9,1.9c2.1,0.5,3.7,1,4.6,1.6
	c0.9,0.6,1.4,1.5,1.4,2.7c0,0.8-0.4,1.5-1.3,2.1c-0.9,0.6-2,0.9-3.4,0.9c-1.7,0-3.1-0.3-4.1-0.9c-1-0.6-1.9-1.5-2.6-2.8
	c-0.4-0.6-0.7-1.2-1.1-1.5c-0.4-0.4-1-0.5-1.7-0.5c-0.8,0-1.5,0.3-2.1,0.8c-0.5,0.5-0.8,1.2-0.8,2c0,1.2,0.4,2.3,1.3,3.5
	c0.9,1.2,2.2,2.1,4,2.9c1.8,0.8,3.9,1.2,6.4,1.2c2.6,0,4.9-0.4,6.7-1.1c1.8-0.7,3.2-1.7,4.2-3.1c0.9-1.4,1.4-3,1.4-5
	C352.8,42,352.4,40.8,351.7,39.8"/>
<path class="st0" d="M215.1,58.3h0.4v-0.5c0-0.5,0.1-1,0.2-1.3c0.1-0.3,0.4-0.6,0.7-0.7c0.3-0.1,0.8-0.2,1.3-0.2
	c1,0,1.5,0.2,1.5,0.7c0,0.2-0.1,0.3-0.2,0.4c-0.1,0.1-0.2,0.2-0.4,0.2c-0.1,0-0.2,0-0.3,0c-0.2,0-0.3,0-0.4,0
	c-0.3,0-0.5,0.1-0.6,0.3c-0.1,0.2-0.1,0.4-0.1,0.8v0.4h0.4c0.7,0,1,0.2,1,0.6c0,0.3-0.1,0.5-0.3,0.5c-0.2,0.1-0.4,0.1-0.7,0.1h-0.4
	v4.6c0,0.3-0.1,0.6-0.2,0.8c-0.2,0.2-0.4,0.3-0.6,0.3c-0.2,0-0.4-0.1-0.6-0.3c-0.2-0.2-0.2-0.4-0.2-0.8v-4.6H215
	c-0.3,0-0.5-0.1-0.6-0.2c-0.1-0.1-0.2-0.3-0.2-0.5C214.2,58.5,214.5,58.3,215.1,58.3"/>
<path class="st0" d="M224,64.2V64c-0.2,0.3-0.4,0.5-0.7,0.7c-0.2,0.2-0.5,0.3-0.7,0.4c-0.3,0.1-0.6,0.1-0.9,0.1
	c-0.4,0-0.8-0.1-1.1-0.3c-0.3-0.2-0.6-0.4-0.8-0.7c-0.2-0.4-0.3-0.9-0.3-1.6v-3.4c0-0.3,0.1-0.6,0.2-0.8c0.2-0.2,0.4-0.3,0.6-0.3
	c0.3,0,0.5,0.1,0.6,0.3c0.2,0.2,0.2,0.4,0.2,0.8V62c0,0.4,0,0.7,0.1,1c0.1,0.3,0.2,0.5,0.4,0.6c0.2,0.2,0.4,0.2,0.7,0.2
	c0.3,0,0.6-0.1,0.8-0.3c0.3-0.2,0.4-0.4,0.6-0.7c0.1-0.2,0.1-0.8,0.1-1.6v-2.1c0-0.3,0.1-0.6,0.2-0.8c0.2-0.2,0.4-0.3,0.6-0.3
	c0.3,0,0.5,0.1,0.6,0.3c0.2,0.2,0.2,0.4,0.2,0.8v5c0,0.3-0.1,0.6-0.2,0.7c-0.1,0.2-0.3,0.2-0.6,0.2c-0.2,0-0.4-0.1-0.6-0.3
	C224.1,64.8,224,64.5,224,64.2"/>
<path class="st0" d="M228.9,59.1v0.2c0.3-0.4,0.6-0.7,1-0.9s0.8-0.3,1.2-0.3c0.5,0,0.9,0.1,1.2,0.3c0.4,0.2,0.6,0.5,0.8,0.8
	c0.1,0.2,0.2,0.4,0.2,0.7c0,0.2,0.1,0.6,0.1,0.9v3.2c0,0.3-0.1,0.6-0.2,0.8c-0.2,0.2-0.4,0.3-0.6,0.3c-0.3,0-0.5-0.1-0.6-0.3
	c-0.2-0.2-0.2-0.4-0.2-0.8v-2.9c0-0.6-0.1-1-0.2-1.3c-0.2-0.3-0.5-0.5-0.9-0.5c-0.3,0-0.6,0.1-0.8,0.3c-0.3,0.2-0.4,0.4-0.6,0.8
	c-0.1,0.3-0.1,0.7-0.1,1.4v2.2c0,0.4-0.1,0.6-0.2,0.8c-0.2,0.2-0.4,0.3-0.6,0.3c-0.2,0-0.5-0.1-0.6-0.3c-0.2-0.2-0.2-0.4-0.2-0.8v-5
	c0-0.3,0.1-0.6,0.2-0.7c0.1-0.2,0.3-0.2,0.6-0.2c0.2,0,0.3,0,0.4,0.1c0.1,0.1,0.2,0.2,0.3,0.3C228.9,58.7,228.9,58.9,228.9,59.1"/>
<path class="st0" d="M240,64.2V64c-0.2,0.3-0.5,0.5-0.7,0.6c-0.2,0.2-0.5,0.3-0.7,0.4c-0.3,0.1-0.6,0.1-0.9,0.1
	c-0.4,0-0.8-0.1-1.1-0.3s-0.7-0.4-0.9-0.8c-0.3-0.3-0.5-0.7-0.6-1.1c-0.1-0.4-0.2-0.9-0.2-1.4c0-1.1,0.3-1.9,0.8-2.5
	c0.5-0.6,1.2-0.9,2.1-0.9c0.5,0,0.9,0.1,1.3,0.3c0.3,0.2,0.7,0.4,1,0.8v-2.6c0-0.4,0.1-0.6,0.2-0.8c0.1-0.2,0.3-0.3,0.6-0.3
	s0.5,0.1,0.6,0.3c0.1,0.2,0.2,0.4,0.2,0.7v7.6c0,0.3-0.1,0.6-0.2,0.7c-0.2,0.2-0.3,0.2-0.6,0.2c-0.2,0-0.4-0.1-0.6-0.3
	C240,64.8,240,64.5,240,64.2 M236.5,61.7c0,0.5,0.1,0.9,0.2,1.2c0.1,0.3,0.3,0.6,0.6,0.7c0.3,0.2,0.5,0.3,0.8,0.3
	c0.3,0,0.6-0.1,0.8-0.2s0.5-0.4,0.6-0.7c0.1-0.3,0.2-0.7,0.2-1.2c0-0.5-0.1-0.9-0.2-1.2c-0.2-0.3-0.4-0.6-0.6-0.8
	c-0.3-0.2-0.5-0.3-0.8-0.3c-0.3,0-0.6,0.1-0.8,0.3c-0.2,0.2-0.4,0.4-0.6,0.8C236.6,60.8,236.5,61.2,236.5,61.7"/>
<path class="st0" d="M249.1,61.8v2.3c0,0.4-0.1,0.6-0.2,0.8c-0.2,0.2-0.4,0.3-0.7,0.3c-0.3,0-0.5-0.1-0.6-0.3
	c-0.2-0.2-0.2-0.5-0.2-0.8v-2.8c0-0.4,0-0.8,0-1c0-0.2-0.1-0.4-0.2-0.6c-0.1-0.2-0.3-0.2-0.6-0.2c-0.6,0-0.9,0.2-1.1,0.6
	c-0.2,0.4-0.3,0.9-0.3,1.7v2.3c0,0.4-0.1,0.6-0.2,0.8c-0.2,0.2-0.4,0.3-0.6,0.3c-0.3,0-0.5-0.1-0.6-0.3c-0.2-0.2-0.3-0.5-0.3-0.8
	v-4.9c0-0.3,0.1-0.6,0.2-0.7s0.3-0.3,0.6-0.3c0.2,0,0.4,0.1,0.6,0.2c0.2,0.2,0.2,0.4,0.2,0.7v0.2c0.3-0.4,0.6-0.6,1-0.8
	c0.3-0.2,0.7-0.3,1.1-0.3c0.4,0,0.8,0.1,1.1,0.3c0.3,0.2,0.6,0.4,0.8,0.8c0.3-0.4,0.6-0.6,0.9-0.8c0.3-0.2,0.7-0.3,1.1-0.3
	c0.5,0,0.9,0.1,1.2,0.3c0.3,0.2,0.6,0.5,0.8,0.8c0.1,0.3,0.2,0.8,0.2,1.5v3.4c0,0.4-0.1,0.6-0.2,0.8c-0.2,0.2-0.4,0.3-0.7,0.3
	c-0.3,0-0.5-0.1-0.6-0.3c-0.2-0.2-0.3-0.5-0.3-0.8v-2.9c0-0.4,0-0.7,0-0.9c0-0.2-0.1-0.4-0.3-0.6c-0.1-0.2-0.4-0.2-0.6-0.2
	c-0.2,0-0.4,0.1-0.6,0.2c-0.2,0.1-0.4,0.3-0.5,0.5C249.1,60.6,249.1,61.1,249.1,61.8"/>
<path class="st0" d="M256.4,65.4l0.2-0.4l-2.1-5.4c-0.1-0.3-0.2-0.5-0.2-0.7c0-0.1,0-0.3,0.1-0.4c0.1-0.1,0.2-0.2,0.3-0.3
	c0.1-0.1,0.3-0.1,0.4-0.1c0.3,0,0.4,0.1,0.6,0.2c0.1,0.2,0.2,0.4,0.3,0.7l1.5,4.3l1.4-4c0.1-0.3,0.2-0.6,0.3-0.8
	c0.1-0.2,0.2-0.3,0.3-0.4c0.1-0.1,0.2-0.1,0.4-0.1c0.1,0,0.3,0,0.4,0.1c0.1,0.1,0.2,0.2,0.3,0.3c0.1,0.1,0.1,0.2,0.1,0.4
	c0,0.1,0,0.2-0.1,0.3c0,0.1-0.1,0.3-0.1,0.5l-2.3,5.9c-0.2,0.5-0.4,0.9-0.6,1.2c-0.2,0.3-0.4,0.5-0.7,0.7c-0.3,0.2-0.7,0.2-1.2,0.2
	c-0.5,0-0.9-0.1-1.1-0.2c-0.3-0.1-0.4-0.3-0.4-0.6c0-0.2,0.1-0.4,0.2-0.5c0.1-0.1,0.3-0.2,0.5-0.2c0.1,0,0.2,0,0.3,0
	c0.1,0,0.2,0,0.3,0c0.2,0,0.4,0,0.5-0.1c0.1-0.1,0.2-0.2,0.3-0.3C256.2,65.9,256.3,65.7,256.4,65.4"/>
<path class="st0" d="M261.9,58.3h0.2v-1c0-0.3,0-0.5,0-0.7c0-0.2,0.1-0.3,0.1-0.4c0.1-0.1,0.2-0.2,0.3-0.3c0.1-0.1,0.3-0.1,0.4-0.1
	c0.2,0,0.4,0.1,0.6,0.2c0.1,0.1,0.2,0.2,0.2,0.4c0,0.2,0,0.4,0,0.7v1.2h0.6c0.2,0,0.4,0.1,0.6,0.2c0.1,0.1,0.2,0.3,0.2,0.4
	c0,0.2-0.1,0.4-0.3,0.5c-0.2,0.1-0.4,0.1-0.8,0.1h-0.3v3.2c0,0.3,0,0.5,0,0.6c0,0.1,0.1,0.3,0.2,0.4c0.1,0.1,0.2,0.1,0.4,0.1
	c0.1,0,0.2,0,0.4-0.1c0.2,0,0.3-0.1,0.4-0.1c0.1,0,0.3,0.1,0.4,0.2c0.1,0.1,0.2,0.3,0.2,0.4c0,0.3-0.2,0.5-0.5,0.6
	c-0.3,0.1-0.7,0.2-1.3,0.2c-0.5,0-1-0.1-1.2-0.3c-0.3-0.2-0.5-0.4-0.5-0.8c-0.1-0.3-0.1-0.8-0.1-1.3v-3.3h-0.2
	c-0.2,0-0.4-0.1-0.6-0.2c-0.1-0.1-0.2-0.3-0.2-0.4c0-0.2,0.1-0.3,0.2-0.4C261.5,58.4,261.7,58.3,261.9,58.3"/>
<path class="st0" d="M271.3,62.1h-3.4c0,0.4,0.1,0.7,0.2,1c0.2,0.3,0.4,0.5,0.6,0.7c0.3,0.2,0.5,0.2,0.8,0.2c0.2,0,0.4,0,0.6-0.1
	c0.2,0,0.3-0.1,0.5-0.2c0.2-0.1,0.3-0.2,0.4-0.3c0.1-0.1,0.3-0.3,0.5-0.5c0.1-0.1,0.2-0.1,0.4-0.1c0.2,0,0.3,0,0.4,0.1
	c0.1,0.1,0.2,0.2,0.2,0.4c0,0.2-0.1,0.3-0.2,0.5c-0.1,0.2-0.3,0.4-0.6,0.6c-0.2,0.2-0.6,0.4-0.9,0.5c-0.4,0.1-0.8,0.2-1.3,0.2
	c-1.1,0-2-0.3-2.6-1c-0.6-0.6-0.9-1.5-0.9-2.6c0-0.5,0.1-1,0.2-1.4s0.4-0.8,0.7-1.1c0.3-0.3,0.6-0.6,1.1-0.7
	c0.4-0.2,0.9-0.3,1.4-0.3c0.7,0,1.3,0.1,1.7,0.4c0.5,0.3,0.8,0.7,1.1,1.1c0.2,0.5,0.4,0.9,0.4,1.4c0,0.4-0.1,0.7-0.4,0.8
	C272.1,62,271.7,62.1,271.3,62.1 M267.9,61.1h3.1c0-0.6-0.2-1-0.5-1.3c-0.3-0.3-0.6-0.4-1.1-0.4c-0.4,0-0.8,0.1-1.1,0.4
	C268.1,60.1,267.9,60.5,267.9,61.1"/>
<path class="st0" d="M277.7,64.5l-1.3-1.8l-1.3,1.8c-0.2,0.3-0.3,0.4-0.5,0.6c-0.1,0.1-0.3,0.2-0.5,0.2c-0.2,0-0.4-0.1-0.6-0.2
	c-0.2-0.1-0.2-0.3-0.2-0.5c0-0.2,0.1-0.4,0.4-0.8l1.6-2.2l-1.4-1.9c-0.2-0.3-0.4-0.6-0.4-0.8c0-0.2,0.1-0.3,0.2-0.5
	c0.1-0.1,0.3-0.2,0.6-0.2c0.2,0,0.4,0.1,0.5,0.2c0.1,0.1,0.3,0.3,0.5,0.5l1.1,1.5l1.1-1.5c0.2-0.3,0.3-0.4,0.5-0.5
	c0.1-0.1,0.3-0.2,0.5-0.2c0.2,0,0.4,0.1,0.6,0.2c0.1,0.1,0.2,0.3,0.2,0.5c0,0.1,0,0.3-0.1,0.4c-0.1,0.1-0.2,0.3-0.3,0.4l-1.4,1.9
	l1.6,2.2c0.2,0.4,0.4,0.6,0.4,0.8c0,0.2-0.1,0.3-0.2,0.5c-0.2,0.1-0.3,0.2-0.6,0.2c-0.2,0-0.4-0.1-0.5-0.2S277.9,64.7,277.7,64.5"/>
<path class="st0" d="M280.8,58.3h0.2v-1c0-0.3,0-0.5,0-0.7c0-0.2,0.1-0.3,0.1-0.4c0.1-0.1,0.2-0.2,0.3-0.3c0.1-0.1,0.3-0.1,0.4-0.1
	c0.2,0,0.4,0.1,0.6,0.2c0.1,0.1,0.2,0.2,0.2,0.4c0,0.2,0,0.4,0,0.7v1.2h0.6c0.2,0,0.4,0.1,0.6,0.2c0.1,0.1,0.2,0.3,0.2,0.4
	c0,0.2-0.1,0.4-0.3,0.5c-0.2,0.1-0.4,0.1-0.8,0.1h-0.3v3.2c0,0.3,0,0.5,0,0.6c0,0.1,0.1,0.3,0.2,0.4c0.1,0.1,0.2,0.1,0.4,0.1
	c0.1,0,0.2,0,0.4-0.1c0.2,0,0.3-0.1,0.4-0.1c0.1,0,0.3,0.1,0.4,0.2c0.1,0.1,0.2,0.3,0.2,0.4c0,0.3-0.2,0.5-0.5,0.6
	c-0.3,0.1-0.7,0.2-1.3,0.2c-0.5,0-1-0.1-1.2-0.3c-0.3-0.2-0.5-0.4-0.5-0.8c-0.1-0.3-0.1-0.8-0.1-1.3v-3.3h-0.2
	c-0.2,0-0.4-0.1-0.6-0.2c-0.1-0.1-0.2-0.3-0.2-0.4c0-0.2,0.1-0.3,0.2-0.4C280.4,58.4,280.6,58.3,280.8,58.3"/>
<path class="st0" d="M286.9,56.6v2.6c0.3-0.3,0.7-0.6,1-0.8c0.3-0.2,0.8-0.3,1.3-0.3c0.6,0,1.1,0.1,1.5,0.4c0.4,0.3,0.8,0.7,1,1.2
	c0.2,0.5,0.4,1.1,0.4,1.8c0,0.5-0.1,1-0.2,1.4c-0.1,0.4-0.3,0.8-0.6,1.1c-0.3,0.3-0.6,0.6-0.9,0.7c-0.4,0.2-0.8,0.3-1.2,0.3
	c-0.3,0-0.5,0-0.8-0.1c-0.2-0.1-0.4-0.1-0.6-0.3c-0.2-0.1-0.3-0.2-0.4-0.3c-0.1-0.1-0.3-0.3-0.5-0.5v0.2c0,0.3-0.1,0.6-0.2,0.7
	c-0.2,0.2-0.4,0.3-0.6,0.3c-0.2,0-0.4-0.1-0.6-0.3c-0.1-0.2-0.2-0.4-0.2-0.7v-7.6c0-0.3,0.1-0.6,0.2-0.8c0.1-0.2,0.3-0.3,0.6-0.3
	c0.3,0,0.5,0.1,0.6,0.3C286.9,56,286.9,56.3,286.9,56.6 M287,61.7c0,0.7,0.2,1.2,0.5,1.6c0.3,0.4,0.7,0.6,1.2,0.6
	c0.4,0,0.8-0.2,1.1-0.6c0.3-0.4,0.5-0.9,0.5-1.6c0-0.5-0.1-0.8-0.2-1.2c-0.1-0.3-0.3-0.6-0.6-0.8s-0.5-0.3-0.8-0.3
	c-0.3,0-0.6,0.1-0.9,0.3c-0.3,0.2-0.5,0.4-0.6,0.8C287.1,60.8,287,61.3,287,61.7"/>
<path class="st0" d="M299.9,61.7c0,0.5-0.1,1-0.2,1.4c-0.2,0.4-0.4,0.8-0.7,1.1c-0.3,0.3-0.7,0.6-1.1,0.7c-0.4,0.2-0.9,0.3-1.4,0.3
	c-0.5,0-1-0.1-1.4-0.3s-0.8-0.4-1.1-0.7c-0.3-0.3-0.5-0.7-0.7-1.1c-0.2-0.4-0.2-0.9-0.2-1.4c0-0.5,0.1-1,0.2-1.4
	c0.2-0.4,0.4-0.8,0.7-1.1c0.3-0.3,0.7-0.5,1.1-0.7s0.9-0.3,1.4-0.3c0.5,0,1,0.1,1.4,0.3c0.4,0.2,0.8,0.4,1.1,0.7
	c0.3,0.3,0.5,0.7,0.7,1.1C299.8,60.7,299.9,61.2,299.9,61.7 M298.2,61.7c0-0.7-0.2-1.3-0.5-1.6c-0.3-0.4-0.7-0.6-1.3-0.6
	c-0.3,0-0.6,0.1-0.9,0.3s-0.5,0.4-0.6,0.8c-0.1,0.3-0.2,0.7-0.2,1.2c0,0.5,0.1,0.8,0.2,1.2c0.1,0.3,0.3,0.6,0.6,0.8
	c0.3,0.2,0.6,0.3,0.9,0.3c0.5,0,0.9-0.2,1.3-0.6C298,62.9,298.2,62.4,298.2,61.7"/>
<path class="st0" d="M307.8,61.7c0,0.5-0.1,1-0.2,1.4c-0.2,0.4-0.4,0.8-0.7,1.1c-0.3,0.3-0.7,0.6-1.1,0.7c-0.4,0.2-0.9,0.3-1.4,0.3
	c-0.5,0-1-0.1-1.4-0.3s-0.8-0.4-1.1-0.7c-0.3-0.3-0.5-0.7-0.7-1.1c-0.2-0.4-0.2-0.9-0.2-1.4c0-0.5,0.1-1,0.2-1.4
	c0.2-0.4,0.4-0.8,0.7-1.1c0.3-0.3,0.7-0.5,1.1-0.7s0.9-0.3,1.4-0.3c0.5,0,1,0.1,1.4,0.3c0.4,0.2,0.8,0.4,1.1,0.7
	c0.3,0.3,0.5,0.7,0.7,1.1C307.7,60.7,307.8,61.2,307.8,61.7 M306,61.7c0-0.7-0.2-1.3-0.5-1.6c-0.3-0.4-0.7-0.6-1.3-0.6
	c-0.3,0-0.6,0.1-0.9,0.3s-0.5,0.4-0.6,0.8c-0.1,0.3-0.2,0.7-0.2,1.2c0,0.5,0.1,0.8,0.2,1.2c0.1,0.3,0.3,0.6,0.6,0.8
	c0.3,0.2,0.6,0.3,0.9,0.3c0.5,0,0.9-0.2,1.3-0.6C305.9,62.9,306,62.4,306,61.7"/>
<path class="st0" d="M313.4,64.4l-1.5-2.5l-0.9,0.9v1.4c0,0.3-0.1,0.6-0.3,0.8c-0.2,0.2-0.4,0.3-0.6,0.3c-0.3,0-0.5-0.1-0.6-0.3
	c-0.2-0.2-0.2-0.4-0.2-0.8v-7.4c0-0.4,0.1-0.7,0.2-0.9c0.1-0.2,0.4-0.3,0.6-0.3c0.3,0,0.5,0.1,0.6,0.3c0.2,0.2,0.2,0.5,0.2,0.8v4.2
	l1.9-2c0.2-0.3,0.4-0.4,0.6-0.5c0.1-0.1,0.3-0.1,0.5-0.1c0.2,0,0.4,0.1,0.5,0.2c0.1,0.1,0.2,0.3,0.2,0.5c0,0.3-0.2,0.6-0.7,1
	l-0.9,0.8l1.8,2.8c0.1,0.2,0.2,0.4,0.3,0.5c0.1,0.1,0.1,0.2,0.1,0.3c0,0.3-0.1,0.5-0.2,0.7c-0.2,0.2-0.3,0.2-0.6,0.2
	c-0.2,0-0.4-0.1-0.5-0.2C313.8,64.9,313.6,64.7,313.4,64.4"/>
<path class="st0" d="M321.8,62.9c0,0.5-0.1,0.9-0.3,1.2c-0.2,0.3-0.6,0.6-1,0.8c-0.5,0.2-1,0.3-1.7,0.3c-0.6,0-1.2-0.1-1.6-0.3
	c-0.4-0.2-0.8-0.4-1-0.7c-0.2-0.3-0.3-0.6-0.3-0.9c0-0.2,0.1-0.4,0.2-0.5c0.1-0.1,0.3-0.2,0.5-0.2c0.2,0,0.3,0,0.4,0.1
	c0.1,0.1,0.2,0.2,0.3,0.4c0.2,0.3,0.4,0.5,0.6,0.7c0.2,0.2,0.6,0.2,1,0.2c0.3,0,0.6-0.1,0.9-0.2c0.2-0.2,0.3-0.3,0.3-0.5
	c0-0.3-0.1-0.5-0.3-0.7c-0.2-0.1-0.6-0.3-1.1-0.4c-0.6-0.1-1.1-0.3-1.5-0.5c-0.4-0.2-0.7-0.4-0.9-0.6c-0.2-0.3-0.3-0.6-0.3-1
	c0-0.3,0.1-0.7,0.3-1c0.2-0.3,0.5-0.6,0.9-0.7c0.4-0.2,0.9-0.3,1.5-0.3c0.4,0,0.9,0,1.2,0.1s0.7,0.2,0.9,0.4
	c0.2,0.2,0.4,0.3,0.5,0.5c0.1,0.2,0.2,0.4,0.2,0.6c0,0.2-0.1,0.4-0.2,0.5c-0.1,0.1-0.3,0.2-0.6,0.2c-0.2,0-0.3-0.1-0.5-0.2
	c-0.1-0.1-0.3-0.3-0.4-0.5c-0.1-0.2-0.3-0.3-0.5-0.4c-0.2-0.1-0.4-0.2-0.7-0.2c-0.3,0-0.6,0.1-0.8,0.2c-0.2,0.1-0.3,0.3-0.3,0.5
	c0,0.2,0.1,0.3,0.2,0.4c0.2,0.1,0.4,0.2,0.6,0.3c0.3,0.1,0.6,0.2,1.1,0.3c0.5,0.1,1,0.3,1.3,0.5c0.3,0.2,0.6,0.4,0.8,0.6
	C321.7,62.3,321.8,62.6,321.8,62.9"/>
<path class="st0" d="M323.8,65.2c-0.3,0-0.5-0.1-0.7-0.3s-0.3-0.4-0.3-0.7c0-0.3,0.1-0.5,0.3-0.7c0.2-0.2,0.4-0.3,0.7-0.3
	s0.5,0.1,0.7,0.3c0.2,0.2,0.3,0.4,0.3,0.7c0,0.3-0.1,0.5-0.3,0.7C324.3,65.1,324,65.2,323.8,65.2"/>
<path class="st0" d="M332.9,63.1c0,0.2-0.1,0.4-0.2,0.7c-0.1,0.2-0.3,0.5-0.6,0.7s-0.6,0.4-1,0.5c-0.4,0.1-0.9,0.2-1.4,0.2
	c-1.1,0-1.9-0.3-2.5-0.9c-0.6-0.6-0.9-1.5-0.9-2.5c0-0.7,0.1-1.3,0.4-1.9c0.3-0.5,0.7-1,1.2-1.3c0.5-0.3,1.1-0.4,1.9-0.4
	c0.4,0,0.9,0.1,1.2,0.2c0.4,0.1,0.7,0.3,1,0.5s0.5,0.4,0.6,0.7c0.1,0.2,0.2,0.5,0.2,0.7c0,0.2-0.1,0.4-0.2,0.5
	c-0.2,0.1-0.3,0.2-0.6,0.2c-0.1,0-0.3,0-0.4-0.1s-0.2-0.2-0.3-0.4c-0.2-0.3-0.4-0.6-0.7-0.7c-0.2-0.2-0.5-0.2-0.9-0.2
	c-0.5,0-0.9,0.2-1.2,0.6c-0.3,0.4-0.5,0.9-0.5,1.6c0,0.3,0,0.6,0.1,0.9c0.1,0.3,0.2,0.5,0.3,0.7c0.2,0.2,0.3,0.3,0.6,0.4
	c0.2,0.1,0.5,0.1,0.7,0.1c0.3,0,0.6-0.1,0.9-0.2c0.2-0.2,0.5-0.4,0.7-0.7c0.1-0.2,0.2-0.3,0.3-0.5c0.1-0.1,0.3-0.2,0.5-0.2
	c0.2,0,0.4,0.1,0.5,0.2C332.8,62.7,332.9,62.9,332.9,63.1"/>
<path class="st0" d="M340.9,61.7c0,0.5-0.1,1-0.2,1.4c-0.2,0.4-0.4,0.8-0.7,1.1c-0.3,0.3-0.7,0.6-1.1,0.7c-0.4,0.2-0.9,0.3-1.4,0.3
	c-0.5,0-1-0.1-1.4-0.3s-0.8-0.4-1.1-0.7c-0.3-0.3-0.5-0.7-0.7-1.1c-0.2-0.4-0.2-0.9-0.2-1.4c0-0.5,0.1-1,0.2-1.4
	c0.2-0.4,0.4-0.8,0.7-1.1c0.3-0.3,0.7-0.5,1.1-0.7s0.9-0.3,1.4-0.3c0.5,0,1,0.1,1.4,0.3c0.4,0.2,0.8,0.4,1.1,0.7
	c0.3,0.3,0.5,0.7,0.7,1.1C340.8,60.7,340.9,61.2,340.9,61.7 M339.1,61.7c0-0.7-0.2-1.3-0.5-1.6c-0.3-0.4-0.7-0.6-1.3-0.6
	c-0.3,0-0.6,0.1-0.9,0.3s-0.5,0.4-0.6,0.8c-0.1,0.3-0.2,0.7-0.2,1.2c0,0.5,0.1,0.8,0.2,1.2c0.1,0.3,0.3,0.6,0.6,0.8
	c0.3,0.2,0.6,0.3,0.9,0.3c0.5,0,0.9-0.2,1.3-0.6C339,62.9,339.1,62.4,339.1,61.7"/>
<path class="st0" d="M348,61.8v2.3c0,0.4-0.1,0.6-0.2,0.8c-0.2,0.2-0.4,0.3-0.7,0.3c-0.3,0-0.5-0.1-0.6-0.3
	c-0.2-0.2-0.2-0.5-0.2-0.8v-2.8c0-0.4,0-0.8,0-1c0-0.2-0.1-0.4-0.2-0.6c-0.1-0.2-0.3-0.2-0.6-0.2c-0.6,0-0.9,0.2-1.1,0.6
	c-0.2,0.4-0.3,0.9-0.3,1.7v2.3c0,0.4-0.1,0.6-0.2,0.8c-0.2,0.2-0.4,0.3-0.6,0.3c-0.3,0-0.5-0.1-0.6-0.3c-0.2-0.2-0.3-0.5-0.3-0.8
	v-4.9c0-0.3,0.1-0.6,0.2-0.7s0.3-0.3,0.6-0.3c0.2,0,0.4,0.1,0.6,0.2c0.2,0.2,0.2,0.4,0.2,0.7v0.2c0.3-0.4,0.6-0.6,1-0.8
	c0.3-0.2,0.7-0.3,1.1-0.3c0.4,0,0.8,0.1,1.1,0.3c0.3,0.2,0.6,0.4,0.8,0.8c0.3-0.4,0.6-0.6,0.9-0.8c0.3-0.2,0.7-0.3,1.1-0.3
	c0.5,0,0.9,0.1,1.2,0.3c0.3,0.2,0.6,0.5,0.8,0.8c0.1,0.3,0.2,0.8,0.2,1.5v3.4c0,0.4-0.1,0.6-0.2,0.8c-0.2,0.2-0.4,0.3-0.7,0.3
	c-0.3,0-0.5-0.1-0.6-0.3c-0.2-0.2-0.3-0.5-0.3-0.8v-2.9c0-0.4,0-0.7,0-0.9c0-0.2-0.1-0.4-0.3-0.6c-0.1-0.2-0.4-0.2-0.6-0.2
	c-0.2,0-0.4,0.1-0.6,0.2c-0.2,0.1-0.4,0.3-0.5,0.5C348.1,60.6,348,61.1,348,61.8"/>
<path class="st1" d="M89.1,33.3c-0.4-0.5-0.9-0.8-1.5-1.1c-0.6-0.3-1.3-0.4-2-0.4h-2.7v11h2.7c0.8,0,1.4-0.1,2-0.4
	c0.6-0.3,1.1-0.6,1.5-1.1c0.4-0.5,0.7-1.1,0.9-1.7c0.2-0.7,0.3-1.5,0.3-2.3c0-0.8-0.1-1.6-0.3-2.3C89.8,34.4,89.5,33.8,89.1,33.3"/>
<path class="st1" d="M114.8,59.2V29.9c0-9.4-7.7-17.1-17.1-17.1H25.4c-9.4,0-17.1,7.7-17.1,17.1v35.5c0,9.4,7.7,17.1,17.1,17.1h72.3
	c5.9,0,11.1-3,14.1-7.5l93.7-15.7H114.8z M41.9,31.8h-7v4.3h5.9v3.1h-5.9v6.7h-4V28.8h11V31.8z M43.7,38.9V28.8h4v10.2
	c0,0.6,0.1,1.1,0.2,1.6c0.2,0.5,0.4,0.9,0.7,1.2c0.3,0.3,0.6,0.6,1.1,0.8c0.4,0.2,0.9,0.3,1.4,0.3c0.5,0,1-0.1,1.4-0.3
	c0.4-0.2,0.8-0.4,1.1-0.8c0.3-0.3,0.5-0.7,0.7-1.2c0.2-0.5,0.2-1,0.2-1.6V28.8h4v10.2c0,1.1-0.2,2-0.5,2.9c-0.3,0.9-0.8,1.6-1.5,2.3
	s-1.4,1.1-2.3,1.5c-0.9,0.4-1.9,0.5-3.1,0.5c-1.1,0-2.2-0.2-3.1-0.5c-0.9-0.4-1.7-0.8-2.3-1.5c-0.6-0.6-1.1-1.4-1.5-2.3
	C43.9,41,43.7,40,43.7,38.9 M63.9,66.6h-3.5v-9.9c0-0.5,0-1,0.1-1.6L55.9,64c-0.1,0.3-0.3,0.5-0.6,0.6c-0.2,0.1-0.5,0.2-0.8,0.2
	h-0.5c-0.3,0-0.6-0.1-0.8-0.2c-0.2-0.1-0.4-0.3-0.6-0.6L48,55.1c0,0.3,0.1,0.5,0.1,0.8s0,0.5,0,0.7v9.9h-3.5V49.4h3h0.5
	c0.1,0,0.2,0,0.3,0.1c0.1,0,0.2,0.1,0.3,0.2c0.1,0.1,0.2,0.2,0.2,0.3l4.4,8.7c0.2,0.3,0.3,0.6,0.5,0.9c0.1,0.3,0.3,0.7,0.4,1
	c0.1-0.3,0.3-0.7,0.4-1c0.1-0.3,0.3-0.6,0.5-0.9l4.4-8.7c0.1-0.1,0.2-0.3,0.2-0.3c0.1-0.1,0.2-0.1,0.3-0.2c0.1,0,0.2-0.1,0.3-0.1
	h0.5h3V66.6z M64.6,45.9h-3.5V28.8h2.1c0.2,0,0.3,0,0.4,0c0.1,0,0.2,0,0.3,0.1c0.1,0,0.2,0.1,0.3,0.2c0.1,0.1,0.2,0.2,0.3,0.3
	l8.2,10.3c0-0.3-0.1-0.6-0.1-1c0-0.3,0-0.6,0-0.9v-9.1h3.5v17.2H74c-0.3,0-0.6,0-0.8-0.1c-0.2-0.1-0.4-0.3-0.6-0.5l-8.1-10.2
	c0,0.3,0,0.6,0.1,0.9c0,0.3,0,0.6,0,0.8V45.9z M75.2,60v6.5h-4V60L65,49.4h3.5c0.3,0,0.6,0.1,0.8,0.2c0.2,0.2,0.4,0.4,0.5,0.6l2.4,5
	c0.2,0.4,0.4,0.8,0.5,1.1c0.2,0.3,0.3,0.7,0.4,1c0.1-0.3,0.3-0.7,0.4-1c0.2-0.3,0.3-0.7,0.5-1.1l2.4-5c0-0.1,0.1-0.2,0.2-0.3
	c0.1-0.1,0.2-0.2,0.3-0.3c0.1-0.1,0.2-0.1,0.4-0.2c0.1-0.1,0.3-0.1,0.5-0.1h3.5L75.2,60z M93.8,40.8c-0.4,1-1,2-1.8,2.7
	c-0.8,0.8-1.7,1.4-2.8,1.8c-1.1,0.4-2.3,0.6-3.6,0.6h-6.7V28.8h6.7c1.3,0,2.5,0.2,3.6,0.6c1.1,0.4,2,1,2.8,1.8
	c0.8,0.8,1.4,1.7,1.8,2.7c0.4,1,0.6,2.2,0.6,3.4C94.5,38.6,94.2,39.7,93.8,40.8"/>
</svg>
